<svg xmlns="http://www.w3.org/2000/svg" width="1480" height="1480" viewBox="-277.72 -157.16 1480 1480" preserveAspectRatio="xMidYMid meet">
  <g transform="matrix(0.1, 0, 0, -0.1, -160.62178, 1262.807495)" fill="#eb3131" stroke="none">
    <path d="M 8940.068 12530.905 C 8632.476 12626.386 8256.21 12636.699 7920.691 12592.175 C 7692.51 12561.895 7551.415 12517.628 7382.506 12430.967 C 6781.9 12129.357 6467.646 11617.041 6360 11382 C 6175.626 10979.426 6165.668 10208.489 6427 9752 C 6532.795 9567.2 6458.587 9078.933 6426.735 9027.816 C 6397.077 8980.22 6492 8980 6605 8965 C 6806 8939 6897.251 8869.119 7014 8740 C 7191.329 8543.882 7131.559 8468.436 7195.559 8543.436 C 7243.559 8600.436 7371.678 8725.948 7525 8832 C 7626.989 8902.546 7666.935 8920.883 7789 8969 C 8089.174 9087.326 8349.833 9115.438 8635 9200 C 9054.139 9341.529 9455.409 9611.143 9720.463 9977.001 C 9839.222 10140.925 9896.36 10224.546 9955 10420 C 10013.688 10615.614 10039.341 10725.135 10146 10750 C 10250.21 10774.294 10205.575 11039.464 10097.757 11058.703 C 9997.43 11076.605 10054.014 11165.961 10021 11308 C 9942.506 11645.707 9938.277 11714.974 9733.529 11996.144 C 9493.952 12325.142 9199.452 12450.388 8940.068 12530.905 Z" style="fill: rgb(235, 49, 49);"/>
    <path d="M4953 11243 c-23 -9 -15 -61 11 -78 31 -20 63 -6 72 30 11 43 -33 69 -83 48z" style="fill: rgb(235, 49, 49);"/>
    <path d="M 6150.992 8875.865 C 5981.314 8854.338 5924.633 8811.304 5810 8740 C 5655.006 8643.591 5581 8460 5569 8433 C 5462 8189 5454.38 7985.083 5593 7880 C 5667.806 7823.292 5716.743 7786.128 5877.221 7740.438 C 5978.134 7711.707 6009.862 7606.67 6055.929 7570.094 C 6087.105 7545.341 6355.409 7635.394 6585.574 7648.705 C 6817.421 7662.113 6995.214 7632.512 6999.16 7718.007 C 7001.289 7764.131 7009.766 7837.478 7015.52 7909.838 C 7021.274 7982.198 7048.513 8146.364 7042 8268 C 7036.442 8371.798 7033.718 8426.861 6994 8497 C 6916.324 8634.172 6903.995 8751.252 6515 8855 C 6356.709 8897.217 6255.727 8889.153 6150.992 8875.865 Z" style="fill: rgb(235, 49, 49);"/>
    <path d="M 9397.496 8594.915 C 8994.617 8558.078 8885.409 8235.823 8871.165 8153.281 C 8808.75 7791.597 9021.599 7688.597 9169 7630 C 9563.978 7516.429 9881.027 7795.052 9952.669 7977.113 C 10089.957 8325.997 9740.844 8626.308 9397.496 8594.915 Z" style="fill: rgb(235, 49, 49);"/>
    <path d="M 4818.631 8161.743 C 4734.526 8103.63 4656.538 7887.132 4390 7754 C 4086.438 7602.375 3925 7626 3640 7619 C 3280 7612 3201.694 7602.144 3055 7568 C 2645.899 7472.779 2518.872 7385.825 2274 7185 C 1760.526 6763.889 1668 6292 1655 6265 C 1583 6118 1596.711 5465.547 1657 5264 C 1764.582 4943.081 1870.176 4636.547 2470 4177 C 2972.792 3791.794 3785.936 3824.472 4039 3961 C 4264.919 4082.883 4814.449 4537.542 5204 4410 C 5439.689 4332.833 5477.939 4363.377 5545.131 4527.723 C 5552.794 4546.466 5571.48 4606.35 5634.905 4668.244 C 5693.331 4722.082 5652.296 4777.39 5544.382 4886.585 C 5174.195 5261.166 4651.883 5986.65 5286.879 7047.435 C 5330.345 7120.047 5310.641 7138.613 5250 7199 C 5144.493 7304.065 5016.531 7456.531 4974.879 7532.003 C 4932.333 7609.095 4892.774 7643.487 5014 7990 C 5070.293 8150.907 4946.642 8250.192 4818.631 8161.743 Z" style="fill: rgb(235, 49, 49);"/>
    <path d="M 6555 7496 C 5812.231 7374.667 5492.296 7120.475 5250.451 6577.235 C 4915.197 5824.177 5489.52 5051.877 5812.32 4872.53 C 6254.282 4626.977 6422.382 4615.745 6920 4659 C 7182.423 4708.303 7215.357 4693.495 7520 4907 C 7659.002 5004.418 7729.638 5064.694 7860 5230 C 7954.712 5350.1 7974 5406 8010 5480 C 8078 5617 8224.066 5881.73 8152.122 6295 C 7995.324 7195.695 7232.962 7606.747 6555 7496 Z" style="fill: rgb(235, 49, 49);"/>
    <path d="M 8911.847 6598.165 C 8845.656 6671.305 8710.514 6684.358 8597.865 6574.607 C 8486.807 6466.407 8460 6379 8460 6301 C 8460 6180 8626.034 6040.429 8800 6170 C 8940.612 6274.729 8990.452 6511.308 8911.847 6598.165 Z" style="fill: rgb(235, 49, 49);"/>
    <path d="M9760 6472 c-25 -20 -13 -66 21 -75 34 -9 60 51 34 77 -21 20 -28 20 -55 -2z" style="fill: rgb(235, 49, 49);"/>
    <path d="M9475 5375 c-29 -28 -31 -51 -9 -83 23 -33 67 -29 93 7 47 66 -28 133 -84 76z" style="fill: rgb(235, 49, 49);"/>
    <path d="M 8135.04 5326.631 C 7894.789 4879.197 7590.464 4738.447 7517.464 4690.447 C 7455.464 4649.447 7494 4612 7544 4540 C 7576 4494 7600 4408 7600 4341 C 7600 4245 7520.206 4097.818 7385 3945 C 7143.578 3672.131 7120.92 3619.725 7026.083 3394.587 C 6939.226 3188.416 6913.982 2793.897 6949.982 2600.897 C 6971.982 2480.897 6991.497 2390.85 7034 2255 C 7080.152 2107.487 7144.333 1997.67 7241 1832 C 7290.584 1747.021 7429.997 1553.593 7592.898 1420.676 C 7780.277 1267.787 8011 1173 8019 1166 C 8026 1160 8205 1096 8230 1087 C 8478 997 8923.072 949.074 9149.072 986.074 C 9200.072 994.074 9487.828 1045.388 9644 1097 C 9800.172 1148.612 9846.858 1168.501 9950 1232 C 10065.286 1302.975 10248 1447 10334 1529 C 10398 1590 10568.982 1760.525 10640 1920 C 10744.965 2155.705 10744.907 2148.511 10808.487 2423.104 C 10824.57 2492.565 10819.782 2537.898 10828.782 2580.898 C 10846.782 2670.898 10851 2789 10827 2925 C 10818 2975 10795 3130 10776 3178 C 10758 3226 10740 3281 10736 3300 C 10729 3342 10675 3467 10637 3531 C 10622 3556 10551 3661 10542 3677 C 10432 3874 10209.073 4114.902 9869.645 4285.239 C 9444.212 4498.736 9410.777 4453.235 9024 4698 C 8802.176 4838.378 8759.049 4997.825 8597.157 5113.798 C 8435.265 5229.771 8157.532 5368.52 8135.04 5326.631 Z" style="fill: rgb(235, 49, 49);"/>
    <path d="M 6329 3910 C 6162.21 3814.182 6107.235 3622.664 6269.573 3548.994 C 6346.255 3514.195 6459.02 3515.882 6516 3595 C 6637.197 3763.286 6519.369 4019.363 6329 3910 Z" style="fill: rgb(235, 49, 49);"/>
    <path d="M 4700.895 3456.66 C 4664.574 3430.299 4676.749 3368.928 4702.749 3351.928 C 4733.749 3331.928 4789.005 3335.51 4807.768 3395.015 C 4825.135 3450.092 4754.933 3495.88 4700.895 3456.66 Z" style="stroke-width: 1; fill: rgb(235, 49, 49);"/>
    <path d="M 6004.308 2597.234 C 5989.64 2567.528 6001.926 2547.747 6010.565 2546.494 C 6033.532 2543.163 6056.406 2539.203 6060.596 2571.403 C 6068.066 2628.663 6014.605 2618.087 6004.308 2597.234 Z" style="stroke-width: 1; fill: rgb(235, 49, 49);"/>
    <ellipse style="stroke: rgb(0, 0, 0); fill: rgb(253, 252, 251);" transform="matrix(1, 0, 0, -1, 0, 0)" cx="6074.02" cy="-6737.9" rx="229.176" ry="241.695"/>
  </g>
</svg>